<mxfile host="app.diagrams.net" modified="2021-06-25T02:13:34.932Z" agent="5.0 (Windows NT 10.0; Win64; x64) AppleWebKit/537.36 (KHTML, like Gecko) Chrome/88.0.4324.104 Safari/537.36" etag="47Ab76OTK1t1-Om2u_zl" version="14.8.0" type="github">
  <diagram id="0p2k3eU1hQrOL5BQR_aa" name="Page-1">
    <mxGraphModel dx="1422" dy="762" grid="1" gridSize="10" guides="1" tooltips="1" connect="1" arrows="1" fold="1" page="1" pageScale="1" pageWidth="827" pageHeight="1169" math="0" shadow="0">
      <root>
        <mxCell id="0" />
        <mxCell id="1" parent="0" />
        <mxCell id="IZOPJ0nrWn3jm-GfNZyf-40" value="纯权益包绑定异业权益资源可选规则配置" style="shape=umlFrame;whiteSpace=wrap;html=1;width=120;height=30;boundedLbl=1;verticalAlign=middle;align=left;spacingLeft=5;" parent="1" vertex="1">
          <mxGeometry x="19" y="20" width="960" height="1850" as="geometry" />
        </mxCell>
        <mxCell id="IZOPJ0nrWn3jm-GfNZyf-1" value="权益运营管理平台" style="shape=umlLifeline;perimeter=lifelinePerimeter;whiteSpace=wrap;html=1;container=1;collapsible=0;recursiveResize=0;outlineConnect=0;rounded=1;shadow=0;comic=0;labelBackgroundColor=none;strokeWidth=1;fontFamily=Verdana;fontSize=12;align=center;" parent="1" vertex="1">
          <mxGeometry x="439" y="80" width="100" height="1730" as="geometry" />
        </mxCell>
        <mxCell id="IZOPJ0nrWn3jm-GfNZyf-2" value="" style="html=1;points=[];perimeter=orthogonalPerimeter;rounded=0;shadow=0;comic=0;labelBackgroundColor=none;strokeWidth=1;fontFamily=Verdana;fontSize=12;align=center;" parent="IZOPJ0nrWn3jm-GfNZyf-1" vertex="1">
          <mxGeometry x="45" y="100" width="10" height="180" as="geometry" />
        </mxCell>
        <mxCell id="IZOPJ0nrWn3jm-GfNZyf-3" value="MYSQL" style="shape=umlLifeline;perimeter=lifelinePerimeter;whiteSpace=wrap;html=1;container=1;collapsible=0;recursiveResize=0;outlineConnect=0;rounded=1;shadow=0;comic=0;labelBackgroundColor=none;strokeWidth=1;fontFamily=Verdana;fontSize=12;align=center;" parent="1" vertex="1">
          <mxGeometry x="759" y="80" width="100" height="1730" as="geometry" />
        </mxCell>
        <mxCell id="IZOPJ0nrWn3jm-GfNZyf-4" value="" style="html=1;points=[];perimeter=orthogonalPerimeter;rounded=0;shadow=0;comic=0;labelBackgroundColor=none;strokeWidth=1;fontFamily=Verdana;fontSize=12;align=center;" parent="IZOPJ0nrWn3jm-GfNZyf-3" vertex="1">
          <mxGeometry x="45" y="120" width="10" height="110" as="geometry" />
        </mxCell>
        <mxCell id="IZOPJ0nrWn3jm-GfNZyf-5" value="运营人员" style="shape=umlLifeline;perimeter=lifelinePerimeter;whiteSpace=wrap;html=1;container=1;collapsible=0;recursiveResize=0;outlineConnect=0;rounded=1;shadow=0;comic=0;labelBackgroundColor=none;strokeWidth=1;fontFamily=Verdana;fontSize=12;align=center;" parent="1" vertex="1">
          <mxGeometry x="119" y="80" width="100" height="1730" as="geometry" />
        </mxCell>
        <mxCell id="IZOPJ0nrWn3jm-GfNZyf-6" value="" style="html=1;points=[];perimeter=orthogonalPerimeter;rounded=0;shadow=0;comic=0;labelBackgroundColor=none;strokeWidth=1;fontFamily=Verdana;fontSize=12;align=center;" parent="IZOPJ0nrWn3jm-GfNZyf-5" vertex="1">
          <mxGeometry x="45" y="100" width="10" height="1580" as="geometry" />
        </mxCell>
        <mxCell id="IZOPJ0nrWn3jm-GfNZyf-7" value="输入原子权益名称" style="html=1;verticalAlign=bottom;endArrow=block;entryX=0;entryY=0;labelBackgroundColor=none;fontFamily=Verdana;fontSize=12;edgeStyle=elbowEdgeStyle;elbow=vertical;" parent="1" source="IZOPJ0nrWn3jm-GfNZyf-6" target="IZOPJ0nrWn3jm-GfNZyf-2" edge="1">
          <mxGeometry relative="1" as="geometry">
            <mxPoint x="419" y="190" as="sourcePoint" />
          </mxGeometry>
        </mxCell>
        <mxCell id="IZOPJ0nrWn3jm-GfNZyf-8" value="输入原子权益名称" style="html=1;verticalAlign=bottom;endArrow=block;entryX=0;entryY=0;labelBackgroundColor=none;fontFamily=Verdana;fontSize=12;edgeStyle=elbowEdgeStyle;elbow=vertical;" parent="1" source="IZOPJ0nrWn3jm-GfNZyf-2" target="IZOPJ0nrWn3jm-GfNZyf-4" edge="1">
          <mxGeometry relative="1" as="geometry">
            <mxPoint x="569" y="200" as="sourcePoint" />
          </mxGeometry>
        </mxCell>
        <mxCell id="IZOPJ0nrWn3jm-GfNZyf-9" value="" style="html=1;verticalAlign=bottom;endArrow=open;dashed=1;endSize=8;" parent="1" edge="1">
          <mxGeometry relative="1" as="geometry">
            <mxPoint x="799" y="269" as="sourcePoint" />
            <mxPoint x="499" y="269" as="targetPoint" />
          </mxGeometry>
        </mxCell>
        <mxCell id="IZOPJ0nrWn3jm-GfNZyf-10" value="" style="html=1;verticalAlign=bottom;endArrow=open;dashed=1;endSize=8;entryX=1.2;entryY=0.387;entryDx=0;entryDy=0;entryPerimeter=0;" parent="1" edge="1">
          <mxGeometry relative="1" as="geometry">
            <mxPoint x="477" y="340" as="sourcePoint" />
            <mxPoint x="174" y="340.01" as="targetPoint" />
          </mxGeometry>
        </mxCell>
        <mxCell id="IZOPJ0nrWn3jm-GfNZyf-11" value="输入原子权权益编码" style="edgeLabel;html=1;align=center;verticalAlign=middle;resizable=0;points=[];" parent="IZOPJ0nrWn3jm-GfNZyf-10" vertex="1" connectable="0">
          <mxGeometry x="0.1023" y="-1" relative="1" as="geometry">
            <mxPoint x="6" y="-10.010000000000002" as="offset" />
          </mxGeometry>
        </mxCell>
        <mxCell id="IZOPJ0nrWn3jm-GfNZyf-12" value="" style="html=1;points=[];perimeter=orthogonalPerimeter;rounded=0;shadow=0;comic=0;labelBackgroundColor=none;strokeWidth=1;fontFamily=Verdana;fontSize=12;align=center;" parent="1" vertex="1">
          <mxGeometry x="484" y="420" width="10" height="180" as="geometry" />
        </mxCell>
        <mxCell id="IZOPJ0nrWn3jm-GfNZyf-13" value="" style="html=1;points=[];perimeter=orthogonalPerimeter;rounded=0;shadow=0;comic=0;labelBackgroundColor=none;strokeWidth=1;fontFamily=Verdana;fontSize=12;align=center;" parent="1" vertex="1">
          <mxGeometry x="804" y="440" width="10" height="110" as="geometry" />
        </mxCell>
        <mxCell id="IZOPJ0nrWn3jm-GfNZyf-14" value="输入原子权权益编码" style="html=1;verticalAlign=bottom;endArrow=block;entryX=0;entryY=0;labelBackgroundColor=none;fontFamily=Verdana;fontSize=12;edgeStyle=elbowEdgeStyle;elbow=vertical;" parent="1" target="IZOPJ0nrWn3jm-GfNZyf-12" edge="1">
          <mxGeometry relative="1" as="geometry">
            <mxPoint x="174" y="420" as="sourcePoint" />
          </mxGeometry>
        </mxCell>
        <mxCell id="IZOPJ0nrWn3jm-GfNZyf-15" value="写入数据库原子权权益编码" style="html=1;verticalAlign=bottom;endArrow=block;entryX=0;entryY=0;labelBackgroundColor=none;fontFamily=Verdana;fontSize=12;edgeStyle=elbowEdgeStyle;elbow=vertical;" parent="1" source="IZOPJ0nrWn3jm-GfNZyf-12" target="IZOPJ0nrWn3jm-GfNZyf-13" edge="1">
          <mxGeometry relative="1" as="geometry">
            <mxPoint x="569" y="440" as="sourcePoint" />
          </mxGeometry>
        </mxCell>
        <mxCell id="IZOPJ0nrWn3jm-GfNZyf-16" value="" style="html=1;verticalAlign=bottom;endArrow=open;dashed=1;endSize=8;" parent="1" edge="1">
          <mxGeometry relative="1" as="geometry">
            <mxPoint x="799" y="509" as="sourcePoint" />
            <mxPoint x="499" y="509" as="targetPoint" />
          </mxGeometry>
        </mxCell>
        <mxCell id="IZOPJ0nrWn3jm-GfNZyf-17" value="" style="html=1;verticalAlign=bottom;endArrow=open;dashed=1;endSize=8;entryX=1.2;entryY=0.387;entryDx=0;entryDy=0;entryPerimeter=0;" parent="1" edge="1">
          <mxGeometry relative="1" as="geometry">
            <mxPoint x="477" y="580" as="sourcePoint" />
            <mxPoint x="174" y="580.01" as="targetPoint" />
          </mxGeometry>
        </mxCell>
        <mxCell id="IZOPJ0nrWn3jm-GfNZyf-18" value="输入原子权益资源描述" style="edgeLabel;html=1;align=center;verticalAlign=middle;resizable=0;points=[];" parent="IZOPJ0nrWn3jm-GfNZyf-17" vertex="1" connectable="0">
          <mxGeometry x="0.1023" y="-1" relative="1" as="geometry">
            <mxPoint x="6" y="-10.010000000000002" as="offset" />
          </mxGeometry>
        </mxCell>
        <mxCell id="IZOPJ0nrWn3jm-GfNZyf-19" value="" style="html=1;points=[];perimeter=orthogonalPerimeter;rounded=0;shadow=0;comic=0;labelBackgroundColor=none;strokeWidth=1;fontFamily=Verdana;fontSize=12;align=center;" parent="1" vertex="1">
          <mxGeometry x="484" y="660" width="10" height="180" as="geometry" />
        </mxCell>
        <mxCell id="IZOPJ0nrWn3jm-GfNZyf-20" value="" style="html=1;points=[];perimeter=orthogonalPerimeter;rounded=0;shadow=0;comic=0;labelBackgroundColor=none;strokeWidth=1;fontFamily=Verdana;fontSize=12;align=center;" parent="1" vertex="1">
          <mxGeometry x="804" y="680" width="10" height="110" as="geometry" />
        </mxCell>
        <mxCell id="IZOPJ0nrWn3jm-GfNZyf-21" value="写入数据权益资源描述" style="html=1;verticalAlign=bottom;endArrow=block;entryX=0;entryY=0;labelBackgroundColor=none;fontFamily=Verdana;fontSize=12;edgeStyle=elbowEdgeStyle;elbow=vertical;" parent="1" target="IZOPJ0nrWn3jm-GfNZyf-19" edge="1">
          <mxGeometry relative="1" as="geometry">
            <mxPoint x="174" y="660" as="sourcePoint" />
          </mxGeometry>
        </mxCell>
        <mxCell id="IZOPJ0nrWn3jm-GfNZyf-22" value="输入原子权益资源开始时间" style="html=1;verticalAlign=bottom;endArrow=block;entryX=0;entryY=0;labelBackgroundColor=none;fontFamily=Verdana;fontSize=12;edgeStyle=elbowEdgeStyle;elbow=vertical;" parent="1" source="IZOPJ0nrWn3jm-GfNZyf-19" target="IZOPJ0nrWn3jm-GfNZyf-20" edge="1">
          <mxGeometry relative="1" as="geometry">
            <mxPoint x="569" y="680" as="sourcePoint" />
          </mxGeometry>
        </mxCell>
        <mxCell id="IZOPJ0nrWn3jm-GfNZyf-23" value="" style="html=1;verticalAlign=bottom;endArrow=open;dashed=1;endSize=8;" parent="1" edge="1">
          <mxGeometry relative="1" as="geometry">
            <mxPoint x="799" y="749" as="sourcePoint" />
            <mxPoint x="499" y="749" as="targetPoint" />
          </mxGeometry>
        </mxCell>
        <mxCell id="IZOPJ0nrWn3jm-GfNZyf-24" value="" style="html=1;verticalAlign=bottom;endArrow=open;dashed=1;endSize=8;entryX=1.2;entryY=0.387;entryDx=0;entryDy=0;entryPerimeter=0;" parent="1" edge="1">
          <mxGeometry relative="1" as="geometry">
            <mxPoint x="477" y="820" as="sourcePoint" />
            <mxPoint x="174" y="820.01" as="targetPoint" />
          </mxGeometry>
        </mxCell>
        <mxCell id="IZOPJ0nrWn3jm-GfNZyf-25" value="写入数据库原子权益资源开始时间" style="edgeLabel;html=1;align=center;verticalAlign=middle;resizable=0;points=[];" parent="IZOPJ0nrWn3jm-GfNZyf-24" vertex="1" connectable="0">
          <mxGeometry x="0.1023" y="-1" relative="1" as="geometry">
            <mxPoint x="6" y="-10.010000000000002" as="offset" />
          </mxGeometry>
        </mxCell>
        <mxCell id="IZOPJ0nrWn3jm-GfNZyf-26" value="" style="html=1;points=[];perimeter=orthogonalPerimeter;rounded=0;shadow=0;comic=0;labelBackgroundColor=none;strokeWidth=1;fontFamily=Verdana;fontSize=12;align=center;" parent="1" vertex="1">
          <mxGeometry x="484" y="970" width="10" height="180" as="geometry" />
        </mxCell>
        <mxCell id="IZOPJ0nrWn3jm-GfNZyf-27" value="" style="html=1;points=[];perimeter=orthogonalPerimeter;rounded=0;shadow=0;comic=0;labelBackgroundColor=none;strokeWidth=1;fontFamily=Verdana;fontSize=12;align=center;" parent="1" vertex="1">
          <mxGeometry x="804" y="990" width="10" height="110" as="geometry" />
        </mxCell>
        <mxCell id="IZOPJ0nrWn3jm-GfNZyf-28" value="输入信息同步申请人姓名" style="html=1;verticalAlign=bottom;endArrow=block;entryX=0;entryY=0;labelBackgroundColor=none;fontFamily=Verdana;fontSize=12;edgeStyle=elbowEdgeStyle;elbow=vertical;" parent="1" target="IZOPJ0nrWn3jm-GfNZyf-26" edge="1">
          <mxGeometry relative="1" as="geometry">
            <mxPoint x="174" y="970" as="sourcePoint" />
          </mxGeometry>
        </mxCell>
        <mxCell id="IZOPJ0nrWn3jm-GfNZyf-29" value="写入数据库同步申请人姓名" style="html=1;verticalAlign=bottom;endArrow=block;entryX=0;entryY=0;labelBackgroundColor=none;fontFamily=Verdana;fontSize=12;edgeStyle=elbowEdgeStyle;elbow=vertical;" parent="1" source="IZOPJ0nrWn3jm-GfNZyf-26" target="IZOPJ0nrWn3jm-GfNZyf-27" edge="1">
          <mxGeometry relative="1" as="geometry">
            <mxPoint x="569" y="990" as="sourcePoint" />
          </mxGeometry>
        </mxCell>
        <mxCell id="IZOPJ0nrWn3jm-GfNZyf-30" value="" style="html=1;verticalAlign=bottom;endArrow=open;dashed=1;endSize=8;" parent="1" edge="1">
          <mxGeometry relative="1" as="geometry">
            <mxPoint x="799" y="1059" as="sourcePoint" />
            <mxPoint x="499" y="1059" as="targetPoint" />
          </mxGeometry>
        </mxCell>
        <mxCell id="IZOPJ0nrWn3jm-GfNZyf-31" value="" style="html=1;verticalAlign=bottom;endArrow=open;dashed=1;endSize=8;entryX=1.2;entryY=0.387;entryDx=0;entryDy=0;entryPerimeter=0;" parent="1" edge="1">
          <mxGeometry relative="1" as="geometry">
            <mxPoint x="477" y="1130" as="sourcePoint" />
            <mxPoint x="174" y="1130.01" as="targetPoint" />
          </mxGeometry>
        </mxCell>
        <mxCell id="IZOPJ0nrWn3jm-GfNZyf-32" value="输入信息权益产品同步申请人账号" style="edgeLabel;html=1;align=center;verticalAlign=middle;resizable=0;points=[];" parent="IZOPJ0nrWn3jm-GfNZyf-31" vertex="1" connectable="0">
          <mxGeometry x="0.1023" y="-1" relative="1" as="geometry">
            <mxPoint x="6" y="-10.010000000000002" as="offset" />
          </mxGeometry>
        </mxCell>
        <mxCell id="IZOPJ0nrWn3jm-GfNZyf-33" value="" style="html=1;points=[];perimeter=orthogonalPerimeter;rounded=0;shadow=0;comic=0;labelBackgroundColor=none;strokeWidth=1;fontFamily=Verdana;fontSize=12;align=center;" parent="1" vertex="1">
          <mxGeometry x="484" y="1220" width="10" height="180" as="geometry" />
        </mxCell>
        <mxCell id="IZOPJ0nrWn3jm-GfNZyf-34" value="" style="html=1;points=[];perimeter=orthogonalPerimeter;rounded=0;shadow=0;comic=0;labelBackgroundColor=none;strokeWidth=1;fontFamily=Verdana;fontSize=12;align=center;" parent="1" vertex="1">
          <mxGeometry x="804" y="1240" width="10" height="110" as="geometry" />
        </mxCell>
        <mxCell id="IZOPJ0nrWn3jm-GfNZyf-35" value="写入数据库权益产品信息申请人账号" style="html=1;verticalAlign=bottom;endArrow=block;entryX=0;entryY=0;labelBackgroundColor=none;fontFamily=Verdana;fontSize=12;edgeStyle=elbowEdgeStyle;elbow=vertical;" parent="1" target="IZOPJ0nrWn3jm-GfNZyf-33" edge="1">
          <mxGeometry relative="1" as="geometry">
            <mxPoint x="174" y="1220" as="sourcePoint" />
          </mxGeometry>
        </mxCell>
        <mxCell id="IZOPJ0nrWn3jm-GfNZyf-36" value="输入信息权益产品同步审批原因" style="html=1;verticalAlign=bottom;endArrow=block;entryX=0;entryY=0;labelBackgroundColor=none;fontFamily=Verdana;fontSize=12;edgeStyle=elbowEdgeStyle;elbow=vertical;" parent="1" source="IZOPJ0nrWn3jm-GfNZyf-33" target="IZOPJ0nrWn3jm-GfNZyf-34" edge="1">
          <mxGeometry relative="1" as="geometry">
            <mxPoint x="569" y="1240" as="sourcePoint" />
          </mxGeometry>
        </mxCell>
        <mxCell id="IZOPJ0nrWn3jm-GfNZyf-37" value="" style="html=1;verticalAlign=bottom;endArrow=open;dashed=1;endSize=8;" parent="1" edge="1">
          <mxGeometry relative="1" as="geometry">
            <mxPoint x="799" y="1309" as="sourcePoint" />
            <mxPoint x="499" y="1309" as="targetPoint" />
          </mxGeometry>
        </mxCell>
        <mxCell id="IZOPJ0nrWn3jm-GfNZyf-38" value="" style="html=1;verticalAlign=bottom;endArrow=open;dashed=1;endSize=8;entryX=1.2;entryY=0.387;entryDx=0;entryDy=0;entryPerimeter=0;" parent="1" edge="1">
          <mxGeometry relative="1" as="geometry">
            <mxPoint x="477" y="1380" as="sourcePoint" />
            <mxPoint x="174" y="1380.0100000000002" as="targetPoint" />
          </mxGeometry>
        </mxCell>
        <mxCell id="IZOPJ0nrWn3jm-GfNZyf-39" value="写入数据库信息同步审批原因" style="edgeLabel;html=1;align=center;verticalAlign=middle;resizable=0;points=[];" parent="IZOPJ0nrWn3jm-GfNZyf-38" vertex="1" connectable="0">
          <mxGeometry x="0.1023" y="-1" relative="1" as="geometry">
            <mxPoint x="6" y="-10.010000000000002" as="offset" />
          </mxGeometry>
        </mxCell>
        <mxCell id="IZOPJ0nrWn3jm-GfNZyf-41" value="" style="html=1;points=[];perimeter=orthogonalPerimeter;rounded=0;shadow=0;comic=0;labelBackgroundColor=none;strokeWidth=1;fontFamily=Verdana;fontSize=12;align=center;" parent="1" vertex="1">
          <mxGeometry x="484" y="1470" width="10" height="180" as="geometry" />
        </mxCell>
        <mxCell id="IZOPJ0nrWn3jm-GfNZyf-42" value="" style="html=1;points=[];perimeter=orthogonalPerimeter;rounded=0;shadow=0;comic=0;labelBackgroundColor=none;strokeWidth=1;fontFamily=Verdana;fontSize=12;align=center;" parent="1" vertex="1">
          <mxGeometry x="804" y="1490" width="10" height="110" as="geometry" />
        </mxCell>
        <mxCell id="IZOPJ0nrWn3jm-GfNZyf-43" value="写入数据库信息申请人账号" style="html=1;verticalAlign=bottom;endArrow=block;entryX=0;entryY=0;labelBackgroundColor=none;fontFamily=Verdana;fontSize=12;edgeStyle=elbowEdgeStyle;elbow=vertical;" parent="1" target="IZOPJ0nrWn3jm-GfNZyf-41" edge="1">
          <mxGeometry relative="1" as="geometry">
            <mxPoint x="174" y="1470" as="sourcePoint" />
          </mxGeometry>
        </mxCell>
        <mxCell id="IZOPJ0nrWn3jm-GfNZyf-44" value="输入信息同步审批原因" style="html=1;verticalAlign=bottom;endArrow=block;entryX=0;entryY=0;labelBackgroundColor=none;fontFamily=Verdana;fontSize=12;edgeStyle=elbowEdgeStyle;elbow=vertical;" parent="1" source="IZOPJ0nrWn3jm-GfNZyf-41" target="IZOPJ0nrWn3jm-GfNZyf-42" edge="1">
          <mxGeometry relative="1" as="geometry">
            <mxPoint x="569" y="1490" as="sourcePoint" />
          </mxGeometry>
        </mxCell>
        <mxCell id="IZOPJ0nrWn3jm-GfNZyf-45" value="" style="html=1;verticalAlign=bottom;endArrow=open;dashed=1;endSize=8;" parent="1" edge="1">
          <mxGeometry relative="1" as="geometry">
            <mxPoint x="799" y="1559" as="sourcePoint" />
            <mxPoint x="499" y="1559" as="targetPoint" />
          </mxGeometry>
        </mxCell>
        <mxCell id="IZOPJ0nrWn3jm-GfNZyf-46" value="" style="html=1;verticalAlign=bottom;endArrow=open;dashed=1;endSize=8;entryX=1.2;entryY=0.387;entryDx=0;entryDy=0;entryPerimeter=0;" parent="1" edge="1">
          <mxGeometry relative="1" as="geometry">
            <mxPoint x="477" y="1630" as="sourcePoint" />
            <mxPoint x="174" y="1630.0100000000002" as="targetPoint" />
          </mxGeometry>
        </mxCell>
        <mxCell id="IZOPJ0nrWn3jm-GfNZyf-47" value="写入数据库信息同步审批原因" style="edgeLabel;html=1;align=center;verticalAlign=middle;resizable=0;points=[];" parent="IZOPJ0nrWn3jm-GfNZyf-46" vertex="1" connectable="0">
          <mxGeometry x="0.1023" y="-1" relative="1" as="geometry">
            <mxPoint x="6" y="-10.010000000000002" as="offset" />
          </mxGeometry>
        </mxCell>
      </root>
    </mxGraphModel>
  </diagram>
</mxfile>
